<svg xmlns="http://www.w3.org/2000/svg" width="18" height="12" fill="none" viewBox="0 0 18 12"><path fill="#6F6F6F" d="M0 2.60976H12.5417C13.3471 2.60976 14 3.21035 14 3.95122V10.6585C14 11.3994 13.3471 12 12.5417 12H7H1.45833C0.652918 12 0 11.3994 0 10.6585V2.60976Z"/><path fill="url(#paint0_linear_762_767)" d="M0 4.62195V10.122C0 10.8628 0.652918 11.4634 1.45833 11.4634H12.5417C13.3471 11.4634 14 10.8628 14 10.122V4.4878C14 3.74694 13.3471 3.14634 12.5417 3.14634H6.41667V3.81707C6.41667 4.2616 6.02492 4.62195 5.54167 4.62195H0Z"/><path fill="#6F6F6F" d="M0 2.07317C0 1.48047 0.522334 1 1.16667 1H5.25C5.89433 1 6.41667 1.48047 6.41667 2.07317V2.60976H0V2.07317Z"/><g opacity=".4"><path fill="#6117FF" d="M0 2.60976H12.5417C13.3471 2.60976 14 3.21035 14 3.95122V10.6585C14 11.3994 13.3471 12 12.5417 12H7H1.45833C0.652918 12 0 11.3994 0 10.6585V2.60976Z"/><path fill="#6117FF" d="M0 4.62195V10.122C0 10.8628 0.652918 11.4634 1.45833 11.4634H12.5417C13.3471 11.4634 14 10.8628 14 10.122V4.4878C14 3.74694 13.3471 3.14634 12.5417 3.14634H6.41667V3.81707C6.41667 4.2616 6.02492 4.62195 5.54167 4.62195H0Z"/><path fill="#6117FF" d="M0 2.07317C0 1.48047 0.522334 1 1.16667 1H5.25C5.89433 1 6.41667 1.48047 6.41667 2.07317V2.60976H0V2.07317Z"/></g><defs><linearGradient id="paint0_linear_762_767" x1="0" x2="17.669" y1="1" y2="12.509" gradientUnits="userSpaceOnUse"><stop offset=".2" stop-color="#818181"/><stop offset=".528" stop-color="#939393"/><stop offset="1" stop-color="#A2A2A2"/></linearGradient></defs></svg>